<?xml version="1.0" encoding="UTF-8" standalone="no"?>
<svg width="23px" height="24px" viewBox="0 0 23 24" version="1.1" xmlns="http://www.w3.org/2000/svg" xmlns:xlink="http://www.w3.org/1999/xlink" xmlns:sketch="http://www.bohemiancoding.com/sketch/ns">
    <!-- Generator: bin/sketchtool 1.4 (311) - http://www.bohemiancoding.com/sketch -->
    <title>challenge_active</title>
    <desc>Created with bin/sketchtool.</desc>
    <defs>
        <filter x="-50%" y="-50%" width="200%" height="200%" filterUnits="objectBoundingBox" id="filter-1">
            <feOffset dx="0" dy="1" in="SourceAlpha" result="shadowOffsetOuter1"></feOffset>
            <feGaussianBlur stdDeviation="1" in="shadowOffsetOuter1" result="shadowBlurOuter1"></feGaussianBlur>
            <feColorMatrix values="0 0 0 0 0   0 0 0 0 0   0 0 0 0 0  0 0 0 0.380862247 0" in="shadowBlurOuter1" type="matrix" result="shadowMatrixOuter1"></feColorMatrix>
            <feOffset dx="0" dy="0" in="SourceAlpha" result="shadowOffsetOuter2"></feOffset>
            <feGaussianBlur stdDeviation="1.5" in="shadowOffsetOuter2" result="shadowBlurOuter2"></feGaussianBlur>
            <feColorMatrix values="0 0 0 0 0   0 0 0 0 0   0 0 0 0 0  0 0 0 0.0977740119 0" in="shadowBlurOuter2" type="matrix" result="shadowMatrixOuter2"></feColorMatrix>
            <feOffset dx="0" dy="1" in="SourceAlpha" result="shadowOffsetInner1"></feOffset>
            <feGaussianBlur stdDeviation="0" in="shadowOffsetInner1" result="shadowBlurInner1"></feGaussianBlur>
            <feComposite in="shadowBlurInner1" in2="SourceAlpha" operator="arithmetic" k2="-1" k3="1" result="shadowInnerInner1"></feComposite>
            <feColorMatrix values="0 0 0 0 1   0 0 0 0 1   0 0 0 0 1  0 0 0 0.0720387178 0" in="shadowInnerInner1" type="matrix" result="shadowMatrixInner1"></feColorMatrix>
            <feOffset dx="0" dy="1" in="SourceAlpha" result="shadowOffsetInner2"></feOffset>
            <feGaussianBlur stdDeviation="1.5" in="shadowOffsetInner2" result="shadowBlurInner2"></feGaussianBlur>
            <feComposite in="shadowBlurInner2" in2="SourceAlpha" operator="arithmetic" k2="-1" k3="1" result="shadowInnerInner2"></feComposite>
            <feColorMatrix values="0 0 0 0 1   0 0 0 0 1   0 0 0 0 1  0 0 0 0.0926269531 0" in="shadowInnerInner2" type="matrix" result="shadowMatrixInner2"></feColorMatrix>
            <feMorphology radius="1" in="SourceAlpha" operator="dilate" result="shadowSpreadInner3"></feMorphology>
            <feOffset dx="0" dy="0" in="shadowSpreadInner3" result="shadowOffsetInner3"></feOffset>
            <feGaussianBlur stdDeviation="0" in="shadowOffsetInner3" result="shadowBlurInner3"></feGaussianBlur>
            <feComposite in="shadowBlurInner3" in2="SourceAlpha" operator="arithmetic" k2="-1" k3="1" result="shadowInnerInner3"></feComposite>
            <feColorMatrix values="0 0 0 0 1   0 0 0 0 1   0 0 0 0 1  0 0 0 0.0720387178 0" in="shadowInnerInner3" type="matrix" result="shadowMatrixInner3"></feColorMatrix>
            <feMerge>
                <feMergeNode in="shadowMatrixOuter1"></feMergeNode>
                <feMergeNode in="shadowMatrixOuter2"></feMergeNode>
                <feMergeNode in="SourceGraphic"></feMergeNode>
                <feMergeNode in="shadowMatrixInner1"></feMergeNode>
                <feMergeNode in="shadowMatrixInner2"></feMergeNode>
                <feMergeNode in="shadowMatrixInner3"></feMergeNode>
            </feMerge>
        </filter>
    </defs>
    <g id="-Assets" stroke="none" stroke-width="1" fill="none" fill-rule="evenodd" sketch:type="MSPage">
        <g sketch:type="MSArtboardGroup" transform="translate(-287.000000, -56.000000)" id="challenge_active" filter="url(#filter-1)" fill="#009EAF">
            <path d="M290.394008,58.2421298 C289.844169,58.2421298 289.398438,58.6968785 289.398438,59.2376998 L289.398438,64.5162026 C289.398438,65.0660408 289.853186,65.5117726 290.394008,65.5117726 L295.67251,65.5117726 C296.222348,65.5117726 296.66808,65.0570239 296.66808,64.5162026 L296.66808,59.2376998 C296.66808,58.6878617 296.213332,58.2421298 295.67251,58.2421298 L290.394008,58.2421298 Z M301.298472,58.2421298 C300.748634,58.2421298 300.302902,58.6968785 300.302902,59.2376998 L300.302902,64.5162026 C300.302902,65.0660408 300.757651,65.5117726 301.298472,65.5117726 L306.576975,65.5117726 C307.126813,65.5117726 307.572545,65.0570239 307.572545,64.5162026 L307.572545,59.2376998 C307.572545,58.6878617 307.117796,58.2421298 306.576975,58.2421298 L301.298472,58.2421298 Z M290.394008,69.1465941 C289.844169,69.1465941 289.398438,69.6013428 289.398438,70.1421641 L289.398438,75.4206669 C289.398438,75.970505 289.853186,76.4162369 290.394008,76.4162369 L295.67251,76.4162369 C296.222348,76.4162369 296.66808,75.9614882 296.66808,75.4206669 L296.66808,70.1421641 C296.66808,69.5923259 296.213332,69.1465941 295.67251,69.1465941 L290.394008,69.1465941 Z M301.298472,69.1465941 C300.748634,69.1465941 300.302902,69.6013428 300.302902,70.1421641 L300.302902,75.4206669 C300.302902,75.970505 300.757651,76.4162369 301.298472,76.4162369 L306.576975,76.4162369 C307.126813,76.4162369 307.572545,75.9614882 307.572545,75.4206669 L307.572545,70.1421641 C307.572545,69.5923259 307.117796,69.1465941 306.576975,69.1465941 L301.298472,69.1465941 Z" sketch:type="MSShapeGroup"></path>
        </g>
    </g>
</svg>