<?xml version="1.0" encoding="UTF-8" standalone="no"?>
<svg width="26px" height="27px" viewBox="0 0 26 27" version="1.1" xmlns="http://www.w3.org/2000/svg" xmlns:xlink="http://www.w3.org/1999/xlink" xmlns:sketch="http://www.bohemiancoding.com/sketch/ns">
    <!-- Generator: bin/sketchtool 1.4 (311) - http://www.bohemiancoding.com/sketch -->
    <title>settings_active</title>
    <desc>Created with bin/sketchtool.</desc>
    <defs>
        <filter x="-50%" y="-50%" width="200%" height="200%" filterUnits="objectBoundingBox" id="filter-1">
            <feOffset dx="0" dy="1" in="SourceAlpha" result="shadowOffsetOuter1"></feOffset>
            <feGaussianBlur stdDeviation="1" in="shadowOffsetOuter1" result="shadowBlurOuter1"></feGaussianBlur>
            <feColorMatrix values="0 0 0 0 0   0 0 0 0 0   0 0 0 0 0  0 0 0 0.380862247 0" in="shadowBlurOuter1" type="matrix" result="shadowMatrixOuter1"></feColorMatrix>
            <feOffset dx="0" dy="0" in="SourceAlpha" result="shadowOffsetOuter2"></feOffset>
            <feGaussianBlur stdDeviation="1.5" in="shadowOffsetOuter2" result="shadowBlurOuter2"></feGaussianBlur>
            <feColorMatrix values="0 0 0 0 0   0 0 0 0 0   0 0 0 0 0  0 0 0 0.0977740119 0" in="shadowBlurOuter2" type="matrix" result="shadowMatrixOuter2"></feColorMatrix>
            <feOffset dx="0" dy="1" in="SourceAlpha" result="shadowOffsetInner1"></feOffset>
            <feGaussianBlur stdDeviation="0" in="shadowOffsetInner1" result="shadowBlurInner1"></feGaussianBlur>
            <feComposite in="shadowBlurInner1" in2="SourceAlpha" operator="arithmetic" k2="-1" k3="1" result="shadowInnerInner1"></feComposite>
            <feColorMatrix values="0 0 0 0 1   0 0 0 0 1   0 0 0 0 1  0 0 0 0.0720387178 0" in="shadowInnerInner1" type="matrix" result="shadowMatrixInner1"></feColorMatrix>
            <feOffset dx="0" dy="1" in="SourceAlpha" result="shadowOffsetInner2"></feOffset>
            <feGaussianBlur stdDeviation="1.5" in="shadowOffsetInner2" result="shadowBlurInner2"></feGaussianBlur>
            <feComposite in="shadowBlurInner2" in2="SourceAlpha" operator="arithmetic" k2="-1" k3="1" result="shadowInnerInner2"></feComposite>
            <feColorMatrix values="0 0 0 0 1   0 0 0 0 1   0 0 0 0 1  0 0 0 0.0926269531 0" in="shadowInnerInner2" type="matrix" result="shadowMatrixInner2"></feColorMatrix>
            <feMorphology radius="1" in="SourceAlpha" operator="dilate" result="shadowSpreadInner3"></feMorphology>
            <feOffset dx="0" dy="0" in="shadowSpreadInner3" result="shadowOffsetInner3"></feOffset>
            <feGaussianBlur stdDeviation="0" in="shadowOffsetInner3" result="shadowBlurInner3"></feGaussianBlur>
            <feComposite in="shadowBlurInner3" in2="SourceAlpha" operator="arithmetic" k2="-1" k3="1" result="shadowInnerInner3"></feComposite>
            <feColorMatrix values="0 0 0 0 1   0 0 0 0 1   0 0 0 0 1  0 0 0 0.0720387178 0" in="shadowInnerInner3" type="matrix" result="shadowMatrixInner3"></feColorMatrix>
            <feMerge>
                <feMergeNode in="shadowMatrixOuter1"></feMergeNode>
                <feMergeNode in="shadowMatrixOuter2"></feMergeNode>
                <feMergeNode in="SourceGraphic"></feMergeNode>
                <feMergeNode in="shadowMatrixInner1"></feMergeNode>
                <feMergeNode in="shadowMatrixInner2"></feMergeNode>
                <feMergeNode in="shadowMatrixInner3"></feMergeNode>
            </feMerge>
        </filter>
    </defs>
    <g id="-Assets" stroke="none" stroke-width="1" fill="none" fill-rule="evenodd" sketch:type="MSPage">
        <g sketch:type="MSArtboardGroup" transform="translate(-326.000000, -54.000000)" id="settings_active" filter="url(#filter-1)" fill="#009EAF">
            <path d="M334.706419,75.2439299 L332.74859,75.8965396 L330.606751,73.7547005 L331.259359,71.7968774 C330.900995,71.1633831 330.61649,70.4825877 330.417542,69.7661907 L328.572545,68.8436923 L328.572545,65.8146744 L330.417542,64.8921759 C330.61649,64.1757789 330.900995,63.4949836 331.259359,62.8614893 L330.606751,60.9036661 L332.74859,58.7618271 L334.706419,59.4144368 C335.339916,59.0560732 336.020707,58.771569 336.7371,58.5726175 L337.659598,56.7276208 L340.688616,56.7276208 L341.611114,58.5726175 C342.327508,58.771569 343.008298,59.0560732 343.641795,59.4144368 L345.599624,58.7618271 L347.741463,60.9036661 L347.088856,62.8614893 C347.447219,63.4949836 347.731724,64.1757789 347.930673,64.8921759 L349.77567,65.8146744 L349.77567,68.8436923 L347.930673,69.7661907 C347.731724,70.4825877 347.447219,71.1633831 347.088856,71.7968774 L347.741463,73.7547005 L345.599624,75.8965396 L343.641795,75.2439299 C343.008298,75.6022935 342.327508,75.8867977 341.611114,76.0857492 L340.688616,77.9307458 L337.659598,77.9307458 L336.7371,76.0857492 C336.020707,75.8867977 335.339916,75.6022935 334.706419,75.2439299 Z M343.717634,67.3291833 C343.717634,64.8198627 341.683428,62.7856566 339.174107,62.7856566 C336.664786,62.7856566 334.63058,64.8198627 334.63058,67.3291833 C334.63058,69.838504 336.664786,71.8727101 339.174107,71.8727101 C341.683428,71.8727101 343.717634,69.838504 343.717634,67.3291833 Z" sketch:type="MSShapeGroup"></path>
        </g>
    </g>
</svg>