<?xml version="1.0" encoding="UTF-8" standalone="no"?>
<svg width="26px" height="27px" viewBox="0 0 26 27" version="1.1" xmlns="http://www.w3.org/2000/svg" xmlns:xlink="http://www.w3.org/1999/xlink" xmlns:sketch="http://www.bohemiancoding.com/sketch/ns">
    <!-- Generator: bin/sketchtool 1.4 (311) - http://www.bohemiancoding.com/sketch -->
    <title>settings</title>
    <desc>Created with bin/sketchtool.</desc>
    <defs>
        <filter x="-50%" y="-50%" width="200%" height="200%" filterUnits="objectBoundingBox" id="filter-1">
            <feOffset dx="0" dy="1" in="SourceAlpha" result="shadowOffsetOuter1"></feOffset>
            <feGaussianBlur stdDeviation="1" in="shadowOffsetOuter1" result="shadowBlurOuter1"></feGaussianBlur>
            <feColorMatrix values="0 0 0 0 0   0 0 0 0 0   0 0 0 0 0  0 0 0 0.380862247 0" in="shadowBlurOuter1" type="matrix" result="shadowMatrixOuter1"></feColorMatrix>
            <feOffset dx="0" dy="0" in="SourceAlpha" result="shadowOffsetOuter2"></feOffset>
            <feGaussianBlur stdDeviation="1.5" in="shadowOffsetOuter2" result="shadowBlurOuter2"></feGaussianBlur>
            <feColorMatrix values="0 0 0 0 0   0 0 0 0 0   0 0 0 0 0  0 0 0 0.0977740119 0" in="shadowBlurOuter2" type="matrix" result="shadowMatrixOuter2"></feColorMatrix>
            <feOffset dx="0" dy="1" in="SourceAlpha" result="shadowOffsetInner1"></feOffset>
            <feGaussianBlur stdDeviation="0" in="shadowOffsetInner1" result="shadowBlurInner1"></feGaussianBlur>
            <feComposite in="shadowBlurInner1" in2="SourceAlpha" operator="arithmetic" k2="-1" k3="1" result="shadowInnerInner1"></feComposite>
            <feColorMatrix values="0 0 0 0 1   0 0 0 0 1   0 0 0 0 1  0 0 0 0.0720387178 0" in="shadowInnerInner1" type="matrix" result="shadowMatrixInner1"></feColorMatrix>
            <feOffset dx="0" dy="1" in="SourceAlpha" result="shadowOffsetInner2"></feOffset>
            <feGaussianBlur stdDeviation="1.5" in="shadowOffsetInner2" result="shadowBlurInner2"></feGaussianBlur>
            <feComposite in="shadowBlurInner2" in2="SourceAlpha" operator="arithmetic" k2="-1" k3="1" result="shadowInnerInner2"></feComposite>
            <feColorMatrix values="0 0 0 0 1   0 0 0 0 1   0 0 0 0 1  0 0 0 0.0926269531 0" in="shadowInnerInner2" type="matrix" result="shadowMatrixInner2"></feColorMatrix>
            <feMorphology radius="1" in="SourceAlpha" operator="dilate" result="shadowSpreadInner3"></feMorphology>
            <feOffset dx="0" dy="0" in="shadowSpreadInner3" result="shadowOffsetInner3"></feOffset>
            <feGaussianBlur stdDeviation="0" in="shadowOffsetInner3" result="shadowBlurInner3"></feGaussianBlur>
            <feComposite in="shadowBlurInner3" in2="SourceAlpha" operator="arithmetic" k2="-1" k3="1" result="shadowInnerInner3"></feComposite>
            <feColorMatrix values="0 0 0 0 1   0 0 0 0 1   0 0 0 0 1  0 0 0 0.0720387178 0" in="shadowInnerInner3" type="matrix" result="shadowMatrixInner3"></feColorMatrix>
            <feMerge>
                <feMergeNode in="shadowMatrixOuter1"></feMergeNode>
                <feMergeNode in="shadowMatrixOuter2"></feMergeNode>
                <feMergeNode in="SourceGraphic"></feMergeNode>
                <feMergeNode in="shadowMatrixInner1"></feMergeNode>
                <feMergeNode in="shadowMatrixInner2"></feMergeNode>
                <feMergeNode in="shadowMatrixInner3"></feMergeNode>
            </feMerge>
        </filter>
    </defs>
    <g id="-Assets" stroke="none" stroke-width="1" fill="none" fill-rule="evenodd" sketch:type="MSPage">
        <g sketch:type="MSArtboardGroup" transform="translate(-326.000000, -16.000000)" id="settings" filter="url(#filter-1)" fill="#8E9BA9">
            <path d="M334.706419,36.8454924 L332.74859,37.4981021 L330.606751,35.356263 L331.259359,33.3984399 C330.900995,32.7649456 330.61649,32.0841502 330.417542,31.3677532 L328.572545,30.4452548 L328.572545,27.4162369 L330.417542,26.4937384 C330.61649,25.7773414 330.900995,25.0965461 331.259359,24.4630518 L330.606751,22.5052286 L332.74859,20.3633896 L334.706419,21.0159993 C335.339916,20.6576357 336.020707,20.3731315 336.7371,20.17418 L337.659598,18.3291833 L340.688616,18.3291833 L341.611114,20.17418 C342.327508,20.3731315 343.008298,20.6576357 343.641795,21.0159993 L345.599624,20.3633896 L347.741463,22.5052286 L347.088856,24.4630518 C347.447219,25.0965461 347.731724,25.7773414 347.930673,26.4937384 L349.77567,27.4162369 L349.77567,30.4452548 L347.930673,31.3677532 C347.731724,32.0841502 347.447219,32.7649456 347.088856,33.3984399 L347.741463,35.356263 L345.599624,37.4981021 L343.641795,36.8454924 C343.008298,37.203856 342.327508,37.4883602 341.611114,37.6873117 L340.688616,39.5323083 L337.659598,39.5323083 L336.7371,37.6873117 C336.020707,37.4883602 335.339916,37.203856 334.706419,36.8454924 Z M343.717634,28.9307458 C343.717634,26.4214252 341.683428,24.3872191 339.174107,24.3872191 C336.664786,24.3872191 334.63058,26.4214252 334.63058,28.9307458 C334.63058,31.4400665 336.664786,33.4742726 339.174107,33.4742726 C341.683428,33.4742726 343.717634,31.4400665 343.717634,28.9307458 Z" sketch:type="MSShapeGroup"></path>
        </g>
    </g>
</svg>